<mxfile host="app.diagrams.net" modified="2023-11-24T13:40:09.927Z" agent="Mozilla/5.0 (Windows NT 10.0; Win64; x64; rv:120.0) Gecko/20100101 Firefox/120.0" etag="D6jeiSpbkwiLrL-eaeJ7" version="22.1.3" type="device">
  <diagram id="C5RBs43oDa-KdzZeNtuy" name="Page-1">
    <mxGraphModel dx="2074" dy="1142" grid="1" gridSize="10" guides="1" tooltips="1" connect="1" arrows="1" fold="1" page="1" pageScale="1" pageWidth="827" pageHeight="1169" math="0" shadow="0">
      <root>
        <mxCell id="WIyWlLk6GJQsqaUBKTNV-0" />
        <mxCell id="WIyWlLk6GJQsqaUBKTNV-1" parent="WIyWlLk6GJQsqaUBKTNV-0" />
        <mxCell id="PLRgoA0x64ubLiuR-Swz-54" value="" style="edgeStyle=orthogonalEdgeStyle;rounded=0;orthogonalLoop=1;jettySize=auto;html=1;entryX=0.5;entryY=0;entryDx=0;entryDy=0;" edge="1" parent="WIyWlLk6GJQsqaUBKTNV-1" source="PLRgoA0x64ubLiuR-Swz-55" target="PLRgoA0x64ubLiuR-Swz-187">
          <mxGeometry relative="1" as="geometry">
            <mxPoint x="148.7550000000001" y="120" as="targetPoint" />
          </mxGeometry>
        </mxCell>
        <mxCell id="PLRgoA0x64ubLiuR-Swz-55" value="RateIO.java&lt;br&gt;Constructor" style="strokeWidth=2;html=1;shape=mxgraph.flowchart.start_1;whiteSpace=wrap;" vertex="1" parent="WIyWlLk6GJQsqaUBKTNV-1">
          <mxGeometry x="98.75" y="30" width="100" height="60" as="geometry" />
        </mxCell>
        <mxCell id="PLRgoA0x64ubLiuR-Swz-124" value="" style="edgeStyle=orthogonalEdgeStyle;rounded=0;orthogonalLoop=1;jettySize=auto;html=1;" edge="1" parent="WIyWlLk6GJQsqaUBKTNV-1" source="PLRgoA0x64ubLiuR-Swz-110" target="PLRgoA0x64ubLiuR-Swz-123">
          <mxGeometry relative="1" as="geometry" />
        </mxCell>
        <mxCell id="PLRgoA0x64ubLiuR-Swz-110" value="Read file defined by rateIOPath" style="whiteSpace=wrap;html=1;strokeWidth=2;" vertex="1" parent="WIyWlLk6GJQsqaUBKTNV-1">
          <mxGeometry x="88.77000000000001" y="330" width="120" height="60" as="geometry" />
        </mxCell>
        <mxCell id="PLRgoA0x64ubLiuR-Swz-111" value="Has argument rateIOPath" style="strokeWidth=2;html=1;shape=mxgraph.flowchart.annotation_2;align=left;labelPosition=right;pointerEvents=1;" vertex="1" parent="WIyWlLk6GJQsqaUBKTNV-1">
          <mxGeometry x="220" y="30" width="50" height="60" as="geometry" />
        </mxCell>
        <mxCell id="PLRgoA0x64ubLiuR-Swz-117" value="" style="edgeStyle=orthogonalEdgeStyle;rounded=0;orthogonalLoop=1;jettySize=auto;html=1;entryX=0;entryY=0.5;entryDx=0;entryDy=0;" edge="1" parent="WIyWlLk6GJQsqaUBKTNV-1" source="PLRgoA0x64ubLiuR-Swz-112" target="PLRgoA0x64ubLiuR-Swz-128">
          <mxGeometry relative="1" as="geometry">
            <mxPoint x="259.38" y="705" as="targetPoint" />
          </mxGeometry>
        </mxCell>
        <mxCell id="PLRgoA0x64ubLiuR-Swz-120" value="&lt;font style=&quot;font-size: 14px;&quot;&gt;No&lt;/font&gt;" style="edgeLabel;html=1;align=center;verticalAlign=middle;resizable=0;points=[];" vertex="1" connectable="0" parent="PLRgoA0x64ubLiuR-Swz-117">
          <mxGeometry x="-0.4756" y="-1" relative="1" as="geometry">
            <mxPoint x="11" y="-1" as="offset" />
          </mxGeometry>
        </mxCell>
        <mxCell id="PLRgoA0x64ubLiuR-Swz-141" value="" style="edgeStyle=orthogonalEdgeStyle;rounded=0;orthogonalLoop=1;jettySize=auto;html=1;" edge="1" parent="WIyWlLk6GJQsqaUBKTNV-1" source="PLRgoA0x64ubLiuR-Swz-112" target="PLRgoA0x64ubLiuR-Swz-136">
          <mxGeometry relative="1" as="geometry" />
        </mxCell>
        <mxCell id="PLRgoA0x64ubLiuR-Swz-142" value="&lt;font style=&quot;font-size: 14px;&quot;&gt;Yes&lt;/font&gt;" style="edgeLabel;html=1;align=center;verticalAlign=middle;resizable=0;points=[];" vertex="1" connectable="0" parent="PLRgoA0x64ubLiuR-Swz-141">
          <mxGeometry x="-0.2219" y="-1" relative="1" as="geometry">
            <mxPoint as="offset" />
          </mxGeometry>
        </mxCell>
        <mxCell id="PLRgoA0x64ubLiuR-Swz-112" value="n &amp;gt; fileLines.length" style="rhombus;whiteSpace=wrap;html=1;strokeWidth=2;" vertex="1" parent="WIyWlLk6GJQsqaUBKTNV-1">
          <mxGeometry x="88.76" y="600" width="118.75" height="110" as="geometry" />
        </mxCell>
        <mxCell id="PLRgoA0x64ubLiuR-Swz-160" value="" style="edgeStyle=orthogonalEdgeStyle;rounded=0;orthogonalLoop=1;jettySize=auto;html=1;" edge="1" parent="WIyWlLk6GJQsqaUBKTNV-1" source="PLRgoA0x64ubLiuR-Swz-121" target="PLRgoA0x64ubLiuR-Swz-112">
          <mxGeometry relative="1" as="geometry" />
        </mxCell>
        <mxCell id="PLRgoA0x64ubLiuR-Swz-121" value="Set n=0" style="whiteSpace=wrap;html=1;strokeWidth=2;" vertex="1" parent="WIyWlLk6GJQsqaUBKTNV-1">
          <mxGeometry x="107.51" y="510" width="81.25" height="40" as="geometry" />
        </mxCell>
        <mxCell id="PLRgoA0x64ubLiuR-Swz-125" value="" style="edgeStyle=orthogonalEdgeStyle;rounded=0;orthogonalLoop=1;jettySize=auto;html=1;" edge="1" parent="WIyWlLk6GJQsqaUBKTNV-1" source="PLRgoA0x64ubLiuR-Swz-123" target="PLRgoA0x64ubLiuR-Swz-121">
          <mxGeometry relative="1" as="geometry" />
        </mxCell>
        <mxCell id="PLRgoA0x64ubLiuR-Swz-123" value="Read all file lines into list, fileLines" style="whiteSpace=wrap;html=1;strokeWidth=2;" vertex="1" parent="WIyWlLk6GJQsqaUBKTNV-1">
          <mxGeometry x="88.76" y="420" width="120" height="60" as="geometry" />
        </mxCell>
        <mxCell id="PLRgoA0x64ubLiuR-Swz-133" value="" style="edgeStyle=orthogonalEdgeStyle;rounded=0;orthogonalLoop=1;jettySize=auto;html=1;" edge="1" parent="WIyWlLk6GJQsqaUBKTNV-1" source="PLRgoA0x64ubLiuR-Swz-128" target="PLRgoA0x64ubLiuR-Swz-132">
          <mxGeometry relative="1" as="geometry" />
        </mxCell>
        <mxCell id="PLRgoA0x64ubLiuR-Swz-128" value="Pass fileLines[n] into parseLine" style="shape=process;whiteSpace=wrap;html=1;backgroundOutline=1;strokeWidth=2;" vertex="1" parent="WIyWlLk6GJQsqaUBKTNV-1">
          <mxGeometry x="270.01" y="625" width="198.75" height="60" as="geometry" />
        </mxCell>
        <mxCell id="PLRgoA0x64ubLiuR-Swz-144" value="" style="edgeStyle=orthogonalEdgeStyle;rounded=0;orthogonalLoop=1;jettySize=auto;html=1;entryX=0.5;entryY=0;entryDx=0;entryDy=0;" edge="1" parent="WIyWlLk6GJQsqaUBKTNV-1" source="PLRgoA0x64ubLiuR-Swz-129" target="PLRgoA0x64ubLiuR-Swz-152">
          <mxGeometry relative="1" as="geometry">
            <mxPoint x="485" y="160" as="targetPoint" />
          </mxGeometry>
        </mxCell>
        <mxCell id="PLRgoA0x64ubLiuR-Swz-129" value="RateIO.java&lt;br&gt;parseLine" style="strokeWidth=2;html=1;shape=mxgraph.flowchart.start_1;whiteSpace=wrap;" vertex="1" parent="WIyWlLk6GJQsqaUBKTNV-1">
          <mxGeometry x="550" y="30" width="100" height="60" as="geometry" />
        </mxCell>
        <mxCell id="PLRgoA0x64ubLiuR-Swz-159" style="edgeStyle=orthogonalEdgeStyle;rounded=0;orthogonalLoop=1;jettySize=auto;html=1;entryX=0.5;entryY=0;entryDx=0;entryDy=0;" edge="1" parent="WIyWlLk6GJQsqaUBKTNV-1" source="PLRgoA0x64ubLiuR-Swz-132" target="PLRgoA0x64ubLiuR-Swz-112">
          <mxGeometry relative="1" as="geometry">
            <Array as="points">
              <mxPoint x="148" y="570" />
            </Array>
          </mxGeometry>
        </mxCell>
        <mxCell id="PLRgoA0x64ubLiuR-Swz-132" value="n = n + 1" style="whiteSpace=wrap;html=1;strokeWidth=2;" vertex="1" parent="WIyWlLk6GJQsqaUBKTNV-1">
          <mxGeometry x="329.08" y="550" width="80.62" height="40" as="geometry" />
        </mxCell>
        <mxCell id="PLRgoA0x64ubLiuR-Swz-136" value="End" style="strokeWidth=2;html=1;shape=mxgraph.flowchart.terminator;whiteSpace=wrap;" vertex="1" parent="WIyWlLk6GJQsqaUBKTNV-1">
          <mxGeometry x="98.77000000000001" y="760" width="100" height="60" as="geometry" />
        </mxCell>
        <mxCell id="PLRgoA0x64ubLiuR-Swz-169" value="" style="edgeStyle=orthogonalEdgeStyle;rounded=0;orthogonalLoop=1;jettySize=auto;html=1;" edge="1" parent="WIyWlLk6GJQsqaUBKTNV-1" source="PLRgoA0x64ubLiuR-Swz-143" target="PLRgoA0x64ubLiuR-Swz-165">
          <mxGeometry relative="1" as="geometry" />
        </mxCell>
        <mxCell id="PLRgoA0x64ubLiuR-Swz-170" value="&lt;font style=&quot;font-size: 14px;&quot;&gt;No&lt;/font&gt;" style="edgeLabel;html=1;align=center;verticalAlign=middle;resizable=0;points=[];" vertex="1" connectable="0" parent="PLRgoA0x64ubLiuR-Swz-169">
          <mxGeometry x="-0.15" relative="1" as="geometry">
            <mxPoint as="offset" />
          </mxGeometry>
        </mxCell>
        <mxCell id="PLRgoA0x64ubLiuR-Swz-176" value="" style="edgeStyle=orthogonalEdgeStyle;rounded=0;orthogonalLoop=1;jettySize=auto;html=1;" edge="1" parent="WIyWlLk6GJQsqaUBKTNV-1" source="PLRgoA0x64ubLiuR-Swz-143" target="PLRgoA0x64ubLiuR-Swz-175">
          <mxGeometry relative="1" as="geometry" />
        </mxCell>
        <mxCell id="PLRgoA0x64ubLiuR-Swz-179" value="&lt;font style=&quot;font-size: 14px;&quot;&gt;Yes&lt;/font&gt;" style="edgeLabel;html=1;align=center;verticalAlign=middle;resizable=0;points=[];" vertex="1" connectable="0" parent="PLRgoA0x64ubLiuR-Swz-176">
          <mxGeometry x="-0.2462" y="-4" relative="1" as="geometry">
            <mxPoint x="6" y="-4" as="offset" />
          </mxGeometry>
        </mxCell>
        <mxCell id="PLRgoA0x64ubLiuR-Swz-143" value="lineTaxType is incomeTax" style="rhombus;whiteSpace=wrap;html=1;strokeWidth=2;" vertex="1" parent="WIyWlLk6GJQsqaUBKTNV-1">
          <mxGeometry x="545" y="340" width="110" height="110" as="geometry" />
        </mxCell>
        <mxCell id="PLRgoA0x64ubLiuR-Swz-155" value="" style="edgeStyle=orthogonalEdgeStyle;rounded=0;orthogonalLoop=1;jettySize=auto;html=1;" edge="1" parent="WIyWlLk6GJQsqaUBKTNV-1" source="PLRgoA0x64ubLiuR-Swz-152" target="PLRgoA0x64ubLiuR-Swz-154">
          <mxGeometry relative="1" as="geometry" />
        </mxCell>
        <mxCell id="PLRgoA0x64ubLiuR-Swz-152" value="Split line into list by comma" style="whiteSpace=wrap;html=1;strokeWidth=2;" vertex="1" parent="WIyWlLk6GJQsqaUBKTNV-1">
          <mxGeometry x="540" y="140" width="120" height="60" as="geometry" />
        </mxCell>
        <mxCell id="PLRgoA0x64ubLiuR-Swz-168" value="" style="edgeStyle=orthogonalEdgeStyle;rounded=0;orthogonalLoop=1;jettySize=auto;html=1;" edge="1" parent="WIyWlLk6GJQsqaUBKTNV-1" source="PLRgoA0x64ubLiuR-Swz-154" target="PLRgoA0x64ubLiuR-Swz-143">
          <mxGeometry relative="1" as="geometry" />
        </mxCell>
        <mxCell id="PLRgoA0x64ubLiuR-Swz-154" value="Set lineTaxType = list[0]" style="whiteSpace=wrap;html=1;strokeWidth=2;" vertex="1" parent="WIyWlLk6GJQsqaUBKTNV-1">
          <mxGeometry x="530" y="230" width="140" height="60" as="geometry" />
        </mxCell>
        <mxCell id="PLRgoA0x64ubLiuR-Swz-156" value="First element in the CSV&lt;br&gt; is the type of tax" style="strokeWidth=2;html=1;shape=mxgraph.flowchart.annotation_2;align=left;labelPosition=right;pointerEvents=1;" vertex="1" parent="WIyWlLk6GJQsqaUBKTNV-1">
          <mxGeometry x="695.48" y="230" width="50" height="60" as="geometry" />
        </mxCell>
        <mxCell id="PLRgoA0x64ubLiuR-Swz-171" value="" style="edgeStyle=orthogonalEdgeStyle;rounded=0;orthogonalLoop=1;jettySize=auto;html=1;" edge="1" parent="WIyWlLk6GJQsqaUBKTNV-1" source="PLRgoA0x64ubLiuR-Swz-165" target="PLRgoA0x64ubLiuR-Swz-166">
          <mxGeometry relative="1" as="geometry" />
        </mxCell>
        <mxCell id="PLRgoA0x64ubLiuR-Swz-172" value="&lt;div style=&quot;font-size: 12px;&quot;&gt;&lt;font style=&quot;font-size: 14px;&quot;&gt;No&lt;/font&gt;&lt;/div&gt;" style="edgeLabel;html=1;align=center;verticalAlign=middle;resizable=0;points=[];" vertex="1" connectable="0" parent="PLRgoA0x64ubLiuR-Swz-171">
          <mxGeometry x="-0.219" y="1" relative="1" as="geometry">
            <mxPoint as="offset" />
          </mxGeometry>
        </mxCell>
        <mxCell id="PLRgoA0x64ubLiuR-Swz-188" value="" style="edgeStyle=orthogonalEdgeStyle;rounded=0;orthogonalLoop=1;jettySize=auto;html=1;" edge="1" parent="WIyWlLk6GJQsqaUBKTNV-1" source="PLRgoA0x64ubLiuR-Swz-165" target="PLRgoA0x64ubLiuR-Swz-180">
          <mxGeometry relative="1" as="geometry" />
        </mxCell>
        <mxCell id="PLRgoA0x64ubLiuR-Swz-191" value="&lt;font style=&quot;font-size: 14px;&quot;&gt;Yes&lt;/font&gt;" style="edgeLabel;html=1;align=center;verticalAlign=middle;resizable=0;points=[];" vertex="1" connectable="0" parent="PLRgoA0x64ubLiuR-Swz-188">
          <mxGeometry x="-0.1012" relative="1" as="geometry">
            <mxPoint x="1" as="offset" />
          </mxGeometry>
        </mxCell>
        <mxCell id="PLRgoA0x64ubLiuR-Swz-165" value="lineTaxType is pension" style="rhombus;whiteSpace=wrap;html=1;strokeWidth=2;" vertex="1" parent="WIyWlLk6GJQsqaUBKTNV-1">
          <mxGeometry x="545" y="500" width="110" height="110" as="geometry" />
        </mxCell>
        <mxCell id="PLRgoA0x64ubLiuR-Swz-173" value="" style="edgeStyle=orthogonalEdgeStyle;rounded=0;orthogonalLoop=1;jettySize=auto;html=1;" edge="1" parent="WIyWlLk6GJQsqaUBKTNV-1" source="PLRgoA0x64ubLiuR-Swz-166" target="PLRgoA0x64ubLiuR-Swz-167">
          <mxGeometry relative="1" as="geometry" />
        </mxCell>
        <mxCell id="PLRgoA0x64ubLiuR-Swz-174" value="&lt;font style=&quot;font-size: 14px;&quot;&gt;No&lt;/font&gt;" style="edgeLabel;html=1;align=center;verticalAlign=middle;resizable=0;points=[];" vertex="1" connectable="0" parent="PLRgoA0x64ubLiuR-Swz-173">
          <mxGeometry x="-0.15" relative="1" as="geometry">
            <mxPoint as="offset" />
          </mxGeometry>
        </mxCell>
        <mxCell id="PLRgoA0x64ubLiuR-Swz-189" value="" style="edgeStyle=orthogonalEdgeStyle;rounded=0;orthogonalLoop=1;jettySize=auto;html=1;" edge="1" parent="WIyWlLk6GJQsqaUBKTNV-1" source="PLRgoA0x64ubLiuR-Swz-166" target="PLRgoA0x64ubLiuR-Swz-181">
          <mxGeometry relative="1" as="geometry" />
        </mxCell>
        <mxCell id="PLRgoA0x64ubLiuR-Swz-194" value="&lt;font style=&quot;font-size: 14px;&quot;&gt;Yes&lt;/font&gt;" style="edgeLabel;html=1;align=center;verticalAlign=middle;resizable=0;points=[];" vertex="1" connectable="0" parent="PLRgoA0x64ubLiuR-Swz-189">
          <mxGeometry x="-0.1749" y="3" relative="1" as="geometry">
            <mxPoint x="-1" y="3" as="offset" />
          </mxGeometry>
        </mxCell>
        <mxCell id="PLRgoA0x64ubLiuR-Swz-166" value="lineTaxType is nationalInsurnace" style="rhombus;whiteSpace=wrap;html=1;strokeWidth=2;" vertex="1" parent="WIyWlLk6GJQsqaUBKTNV-1">
          <mxGeometry x="537.5" y="650" width="125" height="120" as="geometry" />
        </mxCell>
        <mxCell id="PLRgoA0x64ubLiuR-Swz-190" value="" style="edgeStyle=orthogonalEdgeStyle;rounded=0;orthogonalLoop=1;jettySize=auto;html=1;" edge="1" parent="WIyWlLk6GJQsqaUBKTNV-1" source="PLRgoA0x64ubLiuR-Swz-167" target="PLRgoA0x64ubLiuR-Swz-182">
          <mxGeometry relative="1" as="geometry" />
        </mxCell>
        <mxCell id="PLRgoA0x64ubLiuR-Swz-195" value="&lt;font style=&quot;font-size: 14px;&quot;&gt;Yes&lt;/font&gt;" style="edgeLabel;html=1;align=center;verticalAlign=middle;resizable=0;points=[];" vertex="1" connectable="0" parent="PLRgoA0x64ubLiuR-Swz-190">
          <mxGeometry x="-0.0393" y="-1" relative="1" as="geometry">
            <mxPoint x="-1" y="-1" as="offset" />
          </mxGeometry>
        </mxCell>
        <mxCell id="PLRgoA0x64ubLiuR-Swz-167" value="lineTaxType is parking" style="rhombus;whiteSpace=wrap;html=1;strokeWidth=2;" vertex="1" parent="WIyWlLk6GJQsqaUBKTNV-1">
          <mxGeometry x="545" y="810" width="110" height="110" as="geometry" />
        </mxCell>
        <mxCell id="PLRgoA0x64ubLiuR-Swz-175" value="add lineTaxRate, lineTaxBracket to incomeTax" style="whiteSpace=wrap;html=1;strokeWidth=2;" vertex="1" parent="WIyWlLk6GJQsqaUBKTNV-1">
          <mxGeometry x="720" y="365" width="120" height="60" as="geometry" />
        </mxCell>
        <mxCell id="PLRgoA0x64ubLiuR-Swz-178" value="" style="edgeStyle=orthogonalEdgeStyle;rounded=0;orthogonalLoop=1;jettySize=auto;html=1;" edge="1" parent="WIyWlLk6GJQsqaUBKTNV-1">
          <mxGeometry relative="1" as="geometry">
            <mxPoint x="148.7619047619046" y="190" as="sourcePoint" />
            <mxPoint x="149" y="230" as="targetPoint" />
          </mxGeometry>
        </mxCell>
        <mxCell id="PLRgoA0x64ubLiuR-Swz-201" style="edgeStyle=orthogonalEdgeStyle;rounded=0;orthogonalLoop=1;jettySize=auto;html=1;" edge="1" parent="WIyWlLk6GJQsqaUBKTNV-1" source="PLRgoA0x64ubLiuR-Swz-180" target="PLRgoA0x64ubLiuR-Swz-196">
          <mxGeometry relative="1" as="geometry" />
        </mxCell>
        <mxCell id="PLRgoA0x64ubLiuR-Swz-180" value="add lineTaxRate, lineTaxBracket to pension" style="whiteSpace=wrap;html=1;strokeWidth=2;" vertex="1" parent="WIyWlLk6GJQsqaUBKTNV-1">
          <mxGeometry x="720" y="525" width="120" height="60" as="geometry" />
        </mxCell>
        <mxCell id="PLRgoA0x64ubLiuR-Swz-181" value="add lineTaxRate, lineTaxBracket to&lt;br&gt;nationalInsurance" style="whiteSpace=wrap;html=1;strokeWidth=2;" vertex="1" parent="WIyWlLk6GJQsqaUBKTNV-1">
          <mxGeometry x="720" y="680" width="120" height="60" as="geometry" />
        </mxCell>
        <mxCell id="PLRgoA0x64ubLiuR-Swz-182" value="add lineTaxRate, lineTaxBracket to&lt;br&gt;monthlyParking" style="whiteSpace=wrap;html=1;strokeWidth=2;" vertex="1" parent="WIyWlLk6GJQsqaUBKTNV-1">
          <mxGeometry x="720" y="835" width="120" height="60" as="geometry" />
        </mxCell>
        <mxCell id="PLRgoA0x64ubLiuR-Swz-186" value="" style="edgeStyle=orthogonalEdgeStyle;rounded=0;orthogonalLoop=1;jettySize=auto;html=1;" edge="1" parent="WIyWlLk6GJQsqaUBKTNV-1" source="PLRgoA0x64ubLiuR-Swz-185" target="PLRgoA0x64ubLiuR-Swz-110">
          <mxGeometry relative="1" as="geometry" />
        </mxCell>
        <mxCell id="PLRgoA0x64ubLiuR-Swz-185" value="Define number, monthlyParking" style="whiteSpace=wrap;html=1;strokeWidth=2;" vertex="1" parent="WIyWlLk6GJQsqaUBKTNV-1">
          <mxGeometry x="88.77" y="230" width="120" height="60" as="geometry" />
        </mxCell>
        <mxCell id="PLRgoA0x64ubLiuR-Swz-187" value="Define hashmaps:&lt;br&gt;incomeTax&lt;br&gt;pension&lt;br&gt;nationalInsurance" style="whiteSpace=wrap;html=1;strokeWidth=2;" vertex="1" parent="WIyWlLk6GJQsqaUBKTNV-1">
          <mxGeometry x="88.77000000000001" y="130" width="120" height="60" as="geometry" />
        </mxCell>
        <mxCell id="PLRgoA0x64ubLiuR-Swz-196" value="End" style="strokeWidth=2;html=1;shape=mxgraph.flowchart.terminator;whiteSpace=wrap;" vertex="1" parent="WIyWlLk6GJQsqaUBKTNV-1">
          <mxGeometry x="870" y="930" width="100" height="60" as="geometry" />
        </mxCell>
        <mxCell id="PLRgoA0x64ubLiuR-Swz-198" style="edgeStyle=orthogonalEdgeStyle;rounded=0;orthogonalLoop=1;jettySize=auto;html=1;entryX=0;entryY=0.5;entryDx=0;entryDy=0;entryPerimeter=0;" edge="1" parent="WIyWlLk6GJQsqaUBKTNV-1" source="PLRgoA0x64ubLiuR-Swz-167" target="PLRgoA0x64ubLiuR-Swz-196">
          <mxGeometry relative="1" as="geometry">
            <Array as="points">
              <mxPoint x="600" y="960" />
            </Array>
          </mxGeometry>
        </mxCell>
        <mxCell id="PLRgoA0x64ubLiuR-Swz-199" style="edgeStyle=orthogonalEdgeStyle;rounded=0;orthogonalLoop=1;jettySize=auto;html=1;entryX=0.5;entryY=0;entryDx=0;entryDy=0;entryPerimeter=0;" edge="1" parent="WIyWlLk6GJQsqaUBKTNV-1" source="PLRgoA0x64ubLiuR-Swz-182" target="PLRgoA0x64ubLiuR-Swz-196">
          <mxGeometry relative="1" as="geometry" />
        </mxCell>
        <mxCell id="PLRgoA0x64ubLiuR-Swz-200" style="edgeStyle=orthogonalEdgeStyle;rounded=0;orthogonalLoop=1;jettySize=auto;html=1;entryX=0.5;entryY=0;entryDx=0;entryDy=0;entryPerimeter=0;" edge="1" parent="WIyWlLk6GJQsqaUBKTNV-1" source="PLRgoA0x64ubLiuR-Swz-181" target="PLRgoA0x64ubLiuR-Swz-196">
          <mxGeometry relative="1" as="geometry" />
        </mxCell>
        <mxCell id="PLRgoA0x64ubLiuR-Swz-202" style="edgeStyle=orthogonalEdgeStyle;rounded=0;orthogonalLoop=1;jettySize=auto;html=1;entryX=0.5;entryY=0;entryDx=0;entryDy=0;entryPerimeter=0;" edge="1" parent="WIyWlLk6GJQsqaUBKTNV-1" source="PLRgoA0x64ubLiuR-Swz-175" target="PLRgoA0x64ubLiuR-Swz-196">
          <mxGeometry relative="1" as="geometry" />
        </mxCell>
      </root>
    </mxGraphModel>
  </diagram>
</mxfile>
